<svg xmlns="http://www.w3.org/2000/svg" viewBox="290 235.533 672.617 127.472"><defs><style>.a{fill:#3c4a63;}.b{fill:#679ec1;}.c{fill:#6db56d;}.d{fill:#eb8231;}</style></defs><g transform="translate(290 235.533)"><g transform="translate(146.974 35.689)"><path class="a" d="M30.867,9.7a2.565,2.565,0,0,1-.889,1.078,2.252,2.252,0,0,1-1.209.318,3.053,3.053,0,0,1-1.565-.53q-.871-.53-2.063-1.2a16.915,16.915,0,0,0-2.774-1.2,11.733,11.733,0,0,0-3.752-.53,11.072,11.072,0,0,0-3.4.459A7.127,7.127,0,0,0,12.784,9.4a5.18,5.18,0,0,0-1.476,1.926,6.517,6.517,0,0,0-.48,2.544,4.416,4.416,0,0,0,1,2.95,8.3,8.3,0,0,0,2.632,2.014,24.6,24.6,0,0,0,3.734,1.484q2.1.654,4.267,1.4a41.46,41.46,0,0,1,4.267,1.767,14.766,14.766,0,0,1,3.734,2.491,11.272,11.272,0,0,1,2.631,3.692,12.717,12.717,0,0,1,1,5.3,17.181,17.181,0,0,1-1.173,6.36A14.674,14.674,0,0,1,29.5,46.483,16.014,16.014,0,0,1,24,50.016a20.335,20.335,0,0,1-7.432,1.272,24.142,24.142,0,0,1-4.747-.459,25.135,25.135,0,0,1-4.481-1.343A23.416,23.416,0,0,1,3.325,47.4,19.745,19.745,0,0,1,0,44.7l2.72-4.47a3.55,3.55,0,0,1,.925-.813,2.269,2.269,0,0,1,1.209-.336,3.355,3.355,0,0,1,1.885.707q1.014.707,2.383,1.572a18.389,18.389,0,0,0,3.236,1.572,12.523,12.523,0,0,0,4.481.707,9.234,9.234,0,0,0,6.17-1.908,6.761,6.761,0,0,0,2.2-5.424,5.012,5.012,0,0,0-1-3.215,8.009,8.009,0,0,0-2.632-2.1,19.781,19.781,0,0,0-3.734-1.431q-2.1-.583-4.25-1.29a36.712,36.712,0,0,1-4.25-1.661,13.786,13.786,0,0,1-3.734-2.526,11.5,11.5,0,0,1-2.6-3.922,14.79,14.79,0,0,1-1-5.777,13.756,13.756,0,0,1,4.3-9.946A15.84,15.84,0,0,1,11.5,1.222,18.956,18.956,0,0,1,18.51,0a23.642,23.642,0,0,1,8.232,1.378,18.584,18.584,0,0,1,6.419,3.887Z" transform="translate(0 0)"/></g><g transform="translate(186.331 50.22)"><path class="a" d="M29.892,36.149H26.015a4.2,4.2,0,0,1-1.92-.371,2.334,2.334,0,0,1-1.049-1.466l-.765-2.526a29.184,29.184,0,0,1-2.667,2.138,16.16,16.16,0,0,1-2.7,1.537,13.885,13.885,0,0,1-2.969.936,17.894,17.894,0,0,1-3.556.318,13.819,13.819,0,0,1-4.178-.6,9.032,9.032,0,0,1-3.289-1.767A8.267,8.267,0,0,1,.767,31.326,10.7,10.7,0,0,1,0,27.122a8.28,8.28,0,0,1,1.067-3.975,10,10,0,0,1,3.556-3.533,22.648,22.648,0,0,1,6.6-2.632,42.366,42.366,0,0,1,10.224-1.042V13.748a7.9,7.9,0,0,0-1.511-5.3,5.566,5.566,0,0,0-4.41-1.767,10.733,10.733,0,0,0-3.556.477,13.539,13.539,0,0,0-2.418,1.1l-1.9,1.1a3.878,3.878,0,0,1-1.92.477,2.5,2.5,0,0,1-1.494-.442A3.541,3.541,0,0,1,3.221,8.272L1.674,5.622A21.415,21.415,0,0,1,16.556,0a14.484,14.484,0,0,1,5.6,1.025,11.916,11.916,0,0,1,4.178,2.827,12.137,12.137,0,0,1,2.6,4.346,16.592,16.592,0,0,1,.889,5.547Zm-16.732-5.3A11.738,11.738,0,0,0,15.6,30.6a9.4,9.4,0,0,0,2.116-.724,11.25,11.25,0,0,0,1.92-1.184,17.323,17.323,0,0,0,1.778-1.661V21.08a35.153,35.153,0,0,0-6.294.477,16.754,16.754,0,0,0-4.072,1.2,5.221,5.221,0,0,0-2.187,1.767,3.781,3.781,0,0,0-.64,2.138,3.752,3.752,0,0,0,1.351,3.251,5.807,5.807,0,0,0,3.5.9Z" transform="translate(0 0)"/></g><g transform="translate(221.452 50.201)"><path class="a" d="M15.881.016A19.124,19.124,0,0,1,20.2.475a14.8,14.8,0,0,1,3.7,1.36H34.195v3.18a1.759,1.759,0,0,1-.427,1.254,2.479,2.479,0,0,1-1.422.618l-3.2.583a10.941,10.941,0,0,1,.533,1.908,11.226,11.226,0,0,1,.2,2.12,10.543,10.543,0,0,1-1.067,4.77A10.617,10.617,0,0,1,25.873,19.8a13.634,13.634,0,0,1-4.427,2.3,18.3,18.3,0,0,1-5.565.813,20.177,20.177,0,0,1-3.947-.389q-1.671,1.007-1.671,2.261a1.765,1.765,0,0,0,1,1.59,8.113,8.113,0,0,0,2.614.707,29.005,29.005,0,0,0,3.681.212q2.063,0,4.214.177a33.317,33.317,0,0,1,4.214.6,12.354,12.354,0,0,1,3.681,1.378,7.337,7.337,0,0,1,2.632,2.7,7.82,7.82,0,0,1,1,4.152A9.755,9.755,0,0,1,32.114,40.9a12.391,12.391,0,0,1-3.378,3.957,17.824,17.824,0,0,1-5.423,2.791,23.254,23.254,0,0,1-7.326,1.06,28.394,28.394,0,0,1-7.112-.777A16.592,16.592,0,0,1,3.9,45.843,9.052,9.052,0,0,1,.981,42.751,7.032,7.032,0,0,1,0,39.218a6.019,6.019,0,0,1,1.529-4.187,10.534,10.534,0,0,1,4.25-2.7,5.906,5.906,0,0,1-2.134-1.943,5.607,5.607,0,0,1-.8-3.145A5.27,5.27,0,0,1,3.132,25.6a6.591,6.591,0,0,1,.853-1.767,8.293,8.293,0,0,1,1.44-1.572,9.95,9.95,0,0,1,2.063-1.343,11.263,11.263,0,0,1-4.267-3.887A10.3,10.3,0,0,1,1.674,11.34,10.4,10.4,0,0,1,5.692,2.931a13.545,13.545,0,0,1,4.5-2.3A19.268,19.268,0,0,1,15.881.016Zm9.441,37.665a2.428,2.428,0,0,0-.622-1.767,4.129,4.129,0,0,0-1.778-1.042,12.5,12.5,0,0,0-2.525-.548,25.354,25.354,0,0,0-3.076-.177H13.978a14.3,14.3,0,0,1-3.325-.389,7.791,7.791,0,0,0-2.294,1.926,3.871,3.871,0,0,0-.889,2.509,3.516,3.516,0,0,0,.462,1.767,3.92,3.92,0,0,0,1.494,1.4,8.925,8.925,0,0,0,2.667.919,20.73,20.73,0,0,0,4,.336,20.2,20.2,0,0,0,4.143-.371,9.9,9.9,0,0,0,2.88-1.025,4.4,4.4,0,0,0,1.653-1.555A3.848,3.848,0,0,0,25.322,37.681Zm-9.441-20.14a8.138,8.138,0,0,0,2.792-.442,5.482,5.482,0,0,0,1.974-1.2,4.908,4.908,0,0,0,1.191-1.767,6.657,6.657,0,0,0,.409-2.35,5.545,5.545,0,0,0-1.582-4.169,8.115,8.115,0,0,0-9.513,0,5.545,5.545,0,0,0-1.582,4.169A6.552,6.552,0,0,0,9.978,14.1a5.069,5.069,0,0,0,1.191,1.767,5.34,5.34,0,0,0,1.991,1.219A8.173,8.173,0,0,0,15.881,17.541Z" transform="translate(0 0)"/></g><g transform="translate(258.906 50.26)"><path class="a" d="M17.287.009A17.473,17.473,0,0,1,23.51,1.087a13.65,13.65,0,0,1,4.925,3.127,14.352,14.352,0,0,1,3.2,5.053A19.007,19.007,0,0,1,32.791,16.1a12.284,12.284,0,0,1,0,1.608,2.588,2.588,0,0,1-.32,1.007,1.279,1.279,0,0,1-.6.512,2.611,2.611,0,0,1-.978.159H8.663a12.2,12.2,0,0,0,2.969,8.038,9.278,9.278,0,0,0,6.828,2.562,11.891,11.891,0,0,0,3.556-.477,16.857,16.857,0,0,0,2.649-1.078l1.992-1.078a3.339,3.339,0,0,1,1.653-.477,1.788,1.788,0,0,1,.907.212,1.988,1.988,0,0,1,.658.583l2.507,3.109a14.356,14.356,0,0,1-3.2,2.791,18.062,18.062,0,0,1-3.716,1.767,20.511,20.511,0,0,1-3.947.954,28.4,28.4,0,0,1-3.894.283,19.224,19.224,0,0,1-6.934-1.237A15.551,15.551,0,0,1,5.107,31.7a17.049,17.049,0,0,1-3.734-5.953A22.921,22.921,0,0,1,0,17.517,19.584,19.584,0,0,1,1.2,10.68,16.446,16.446,0,0,1,4.591,5.1,16,16,0,0,1,9.925,1.334,17.882,17.882,0,0,1,17.287.009Zm.178,6.13a8,8,0,0,0-5.885,2.12,10.392,10.392,0,0,0-2.7,5.989h16.18a10.628,10.628,0,0,0-.462-3.145,7.229,7.229,0,0,0-1.387-2.579,6.629,6.629,0,0,0-2.365-1.767A8.137,8.137,0,0,0,17.464,6.14Z" transform="translate(0 0)"/></g><g transform="translate(301.734 37.337)"><path class="a" d="M0,49.028V0H14.224a28.283,28.283,0,0,1,7.308.83,13.888,13.888,0,0,1,5.1,2.438,9.989,9.989,0,0,1,3.023,3.94,13.243,13.243,0,0,1,1,5.3,10.539,10.539,0,0,1-.676,3.745A11.311,11.311,0,0,1,28,19.579a12.636,12.636,0,0,1-3.165,2.65A15.184,15.184,0,0,1,20.572,24a16.053,16.053,0,0,1,8.89,3.851,10.335,10.335,0,0,1,3.13,7.862,13.616,13.616,0,0,1-1.12,5.618,11.368,11.368,0,0,1-3.2,4.134,14.83,14.83,0,0,1-5.228,2.65,24.817,24.817,0,0,1-7.112.919ZM3.556,22.935H14.224a17.4,17.4,0,0,0,5.85-.866,11.56,11.56,0,0,0,3.983-2.279,8.833,8.833,0,0,0,2.276-3.215,9.754,9.754,0,0,0,.729-3.71A9.071,9.071,0,0,0,23.9,5.357Q20.75,2.813,14.153,2.813H3.485Zm0,2.6V46.184H16a14.952,14.952,0,0,0,9.833-2.791,9.687,9.687,0,0,0,3.307-7.844,9.54,9.54,0,0,0-.889-4.169,8.74,8.74,0,0,0-2.56-3.162,11.981,11.981,0,0,0-4.107-2,20.358,20.358,0,0,0-5.547-.689Z" transform="translate(0 0)"/></g><g transform="translate(344.718 36.866)"><path class="a" d="M6.17,3.085A2.6,2.6,0,0,1,5.9,4.251a3.533,3.533,0,0,1-.676.954,3.149,3.149,0,0,1-.978.654,3.023,3.023,0,0,1-2.365,0,3.131,3.131,0,0,1-.978-.654,3.215,3.215,0,0,1-.658-.954A2.794,2.794,0,0,1,0,3.085a3.039,3.039,0,0,1,.249-1.2A3.084,3.084,0,0,1,1.885.241a3.023,3.023,0,0,1,2.365,0,3.166,3.166,0,0,1,.978.654,3.32,3.32,0,0,1,.676.989A2.829,2.829,0,0,1,6.17,3.085ZM4.712,14.975V49.512H1.4V15.045Z" transform="translate(0 0)"/></g><g transform="translate(359.425 51.338)"><path class="a" d="M15.841,0a16.772,16.772,0,0,1,6.685,1.272A13.618,13.618,0,0,1,27.5,4.807a15.874,15.874,0,0,1,3.094,5.6,25.742,25.742,0,0,1,0,14.645,15.876,15.876,0,0,1-3.112,5.618A13.426,13.426,0,0,1,22.509,34.2a18.5,18.5,0,0,1-13.353,0,13.584,13.584,0,0,1-5-3.533,15.73,15.73,0,0,1-3.094-5.583,25.7,25.7,0,0,1,0-14.645,15.729,15.729,0,0,1,3.094-5.6,13.779,13.779,0,0,1,5-3.533A16.772,16.772,0,0,1,15.841,0Zm0,32.877a12.966,12.966,0,0,0,5.334-1.06,10.233,10.233,0,0,0,3.876-3.039,13.337,13.337,0,0,0,2.311-4.77,25.828,25.828,0,0,0,.125-12.437,13.5,13.5,0,0,0-2.312-4.805A10.319,10.319,0,0,0,21.3,3.694a14.309,14.309,0,0,0-10.846,0A10.337,10.337,0,0,0,6.577,6.768a13.726,13.726,0,0,0-2.365,4.805,25.264,25.264,0,0,0,0,12.49,13.549,13.549,0,0,0,2.329,4.77,10.25,10.25,0,0,0,3.876,3.039A12.964,12.964,0,0,0,15.841,32.9Z" transform="translate(0 0)"/></g><g transform="translate(400.115 51.397)"><path class="a" d="M0,34.984V.517H1.778a.947.947,0,0,1,.711.21.934.934,0,0,1,.338.656l.32,5.194a19.521,19.521,0,0,1,5.53-4.805A13.815,13.815,0,0,1,15.789,0a13.107,13.107,0,0,1,5.032.9,9.241,9.241,0,0,1,3.556,2.6,11.475,11.475,0,0,1,2.169,4.081,18.42,18.42,0,0,1,.729,5.406V34.984H23.968V12.954a11.747,11.747,0,0,0-2.24-7.614A8.277,8.277,0,0,0,14.9,2.584,12.167,12.167,0,0,0,8.552,4.35,18.411,18.411,0,0,0,3.325,9.155V34.984Z" transform="translate(0 0)"/></g><g transform="translate(435.55 51.338)"><path class="a" d="M15.722,0a14.306,14.306,0,0,1,5.423,1.007,12.2,12.2,0,0,1,4.321,2.933,13.462,13.462,0,0,1,2.863,4.735,18.688,18.688,0,0,1,1.031,6.448,1.758,1.758,0,0,1-.231,1.042.874.874,0,0,1-.711.283H3.382V17.1a23.214,23.214,0,0,0,.907,6.819,13.977,13.977,0,0,0,2.578,4.947,10.662,10.662,0,0,0,4.054,3,13.446,13.446,0,0,0,5.334,1.007,16,16,0,0,0,4.534-.565,17.049,17.049,0,0,0,3.218-1.29,17.813,17.813,0,0,0,2.08-1.29,2.352,2.352,0,0,1,1.12-.565.8.8,0,0,1,.693.353l.907,1.113a9.475,9.475,0,0,1-2.223,1.943,15.779,15.779,0,0,1-3.076,1.537,22.364,22.364,0,0,1-3.556,1.025,20.156,20.156,0,0,1-3.894.389,16.629,16.629,0,0,1-6.49-1.237,13.814,13.814,0,0,1-5.032-3.533,16.369,16.369,0,0,1-3.4-5.865A24.48,24.48,0,0,1,0,17.086,21.075,21.075,0,0,1,1.07,10.249,15.643,15.643,0,0,1,4.129,4.843,14.008,14.008,0,0,1,9.054,1.31,16.253,16.253,0,0,1,15.722,0Zm0,2.456a13.072,13.072,0,0,0-4.8.83A10.5,10.5,0,0,0,7.24,5.673,12.184,12.184,0,0,0,4.733,9.418a16.959,16.959,0,0,0-1.262,4.894H26.319a15.087,15.087,0,0,0-.765-4.964A10.585,10.585,0,0,0,23.4,5.62,9.354,9.354,0,0,0,20.06,3.288a11.1,11.1,0,0,0-4.285-.813Z" transform="translate(0 0)"/></g><g transform="translate(470.357 39.768)"><path class="a" d="M13.283,47.17a7.426,7.426,0,0,1-5.476-1.943A8.128,8.128,0,0,1,5.85,39.238V15.671H.872a.946.946,0,0,1-.622-.212A.74.74,0,0,1,0,14.876v-1.29l5.921-.424L6.757.8A.952.952,0,0,1,7.024.248.785.785,0,0,1,7.628,0H9.175V13.162H20.093v2.456H9.175V39.043a7.289,7.289,0,0,0,.373,2.438,4.515,4.515,0,0,0,1.014,1.767,3.951,3.951,0,0,0,1.511.972,5.566,5.566,0,0,0,1.885.318,5.814,5.814,0,0,0,2.169-.371,9.008,9.008,0,0,0,1.565-.795,10.115,10.115,0,0,0,1.085-.795,1.191,1.191,0,0,1,.658-.371.765.765,0,0,1,.551.353l.907,1.449a9.673,9.673,0,0,1-3.36,2.332A10.568,10.568,0,0,1,13.283,47.17Z" transform="translate(0 0)"/></g><g transform="translate(494.516 51.75)"><path class="a" d="M0,.161H2.632a1.214,1.214,0,0,1,.8.265,1.29,1.29,0,0,1,.427.565L12.606,28.2A15.021,15.021,0,0,1,13,29.717l.284,1.449c.124-.477.249-.972.391-1.449s.3-.989.48-1.519L23.47.761A.953.953,0,0,1,23.819.2a.964.964,0,0,1,.629-.2h1.3A.982.982,0,0,1,26.394.2a.971.971,0,0,1,.366.565L35.934,28.2a28.432,28.432,0,0,1,.836,3.021q.142-.724.3-1.466a12.694,12.694,0,0,1,.445-1.537L46.3,1.009A1.131,1.131,0,0,1,46.745.38a1.144,1.144,0,0,1,.747-.2h2.436L38.193,34.628H35.757c-.373,0-.64-.247-.8-.724L25.5,5.867q-.178-.512-.32-1.042t-.249-1.042q-.107.512-.231,1.042a10.462,10.462,0,0,1-.3,1.042l-9.619,28a.846.846,0,0,1-.283.515.856.856,0,0,1-.552.209H11.611Z" transform="translate(0 0)"/></g><g transform="translate(548.56 51.338)"><path class="a" d="M15.823,0a16.773,16.773,0,0,1,6.686,1.272,13.619,13.619,0,0,1,4.978,3.533,15.871,15.871,0,0,1,3.094,5.6,25.739,25.739,0,0,1,0,14.645,15.873,15.873,0,0,1-3.094,5.583,13.426,13.426,0,0,1-4.978,3.533,18.5,18.5,0,0,1-13.353,0,13.584,13.584,0,0,1-5-3.533,15.73,15.73,0,0,1-3.094-5.583,25.7,25.7,0,0,1,0-14.645,15.729,15.729,0,0,1,3.094-5.6,13.779,13.779,0,0,1,5-3.533A16.772,16.772,0,0,1,15.823,0Zm0,32.877a12.965,12.965,0,0,0,5.334-1.06A10.234,10.234,0,0,0,25.051,28.8a13.337,13.337,0,0,0,2.311-4.77,25.823,25.823,0,0,0,0-12.49,13.5,13.5,0,0,0-2.311-4.805,10.32,10.32,0,0,0-3.876-3.074,14.309,14.309,0,0,0-10.846,0A10.337,10.337,0,0,0,6.453,6.733a13.722,13.722,0,0,0-2.258,4.841,25.264,25.264,0,0,0,0,12.49,13.549,13.549,0,0,0,2.329,4.77A10.251,10.251,0,0,0,10.4,31.872,12.964,12.964,0,0,0,15.823,32.9Z" transform="translate(0 0)"/></g><g transform="translate(589.231 51.299)"><path class="a" d="M0,35.073V.606H1.778a1.232,1.232,0,0,1,.853.247,1.2,1.2,0,0,1,.3.83l.284,7.279A16.389,16.389,0,0,1,7.681,2.391,10.23,10.23,0,0,1,14.6.006a12.04,12.04,0,0,1,2.9.336A11.177,11.177,0,0,1,20,1.3l-.462,2.279a.618.618,0,0,1-.231.418.625.625,0,0,1-.462.13,1.931,1.931,0,0,1-.587-.141l-.96-.318a11.728,11.728,0,0,0-1.4-.318,11.934,11.934,0,0,0-1.92-.141,8.923,8.923,0,0,0-6.49,2.456A17.322,17.322,0,0,0,3.4,12.725V35.073Z" transform="translate(0 0)"/></g><g transform="translate(617.684 35.944)"><path class="a" d="M3.254,0V30.739h1.6a3.055,3.055,0,0,0,.925-.141,2.58,2.58,0,0,0,.96-.654L20.661,16.818a4.215,4.215,0,0,1,.782-.618,1.966,1.966,0,0,1,1.031-.247h2.934L10.1,30.4l-.658.636a3.317,3.317,0,0,1-.693.495,3.65,3.65,0,0,1,.942.654l.8.83,16,17.4h-2.9a1.93,1.93,0,0,1-.871-.194,2.681,2.681,0,0,1-.764-.6L7.486,34.025A3.785,3.785,0,0,0,6.4,33.177a3.9,3.9,0,0,0-1.529-.23H3.307v17.4H0V0Z" transform="translate(0 0)"/></g><g transform="translate(649.393 51.26)"><path class="a" d="M21.657,4.931a.8.8,0,0,1-.765.477,1.891,1.891,0,0,1-1-.442,16.012,16.012,0,0,0-1.6-.972,13.064,13.064,0,0,0-2.436-.972A12.522,12.522,0,0,0,12.3,2.582a10.481,10.481,0,0,0-3.432.53A8.552,8.552,0,0,0,6.223,4.543,6.477,6.477,0,0,0,4.445,6.627a5.413,5.413,0,0,0-.6,2.509,4.239,4.239,0,0,0,.836,2.7,7.1,7.1,0,0,0,2.2,1.767,16.879,16.879,0,0,0,3.094,1.307l3.556,1.113q1.778.548,3.556,1.237a13.409,13.409,0,0,1,3.094,1.767,8.007,8.007,0,0,1,2.2,2.456,7.029,7.029,0,0,1,.836,3.533A10.644,10.644,0,0,1,22.4,29.2a9.523,9.523,0,0,1-2.365,3.357A11.38,11.38,0,0,1,16.216,34.8a14.916,14.916,0,0,1-5.156.83,15.661,15.661,0,0,1-6.312-1.166A17.793,17.793,0,0,1,0,31.431l.8-1.184a1.344,1.344,0,0,1,.391-.424,1.072,1.072,0,0,1,.587-.141,1.926,1.926,0,0,1,1.12.548,13.93,13.93,0,0,0,1.778,1.2,14.261,14.261,0,0,0,2.649,1.2,11.99,11.99,0,0,0,3.93.548,11.309,11.309,0,0,0,3.876-.6,8.046,8.046,0,0,0,2.792-1.643A6.856,6.856,0,0,0,19.7,28.5a7.728,7.728,0,0,0,.569-2.968,4.747,4.747,0,0,0-.836-2.88,7.1,7.1,0,0,0-2.2-1.943,15.506,15.506,0,0,0-3.094-1.36l-3.556-1.113Q8.8,17.686,7.023,17.015a12.864,12.864,0,0,1-3.094-1.661,8.038,8.038,0,0,1-2.2-2.438A7.03,7.03,0,0,1,.889,9.383a8.171,8.171,0,0,1,.8-3.533A8.993,8.993,0,0,1,3.858,2.811,11.255,11.255,0,0,1,7.415.762,14.111,14.111,0,0,1,12.2,0a16.1,16.1,0,0,1,5.636.919A13.793,13.793,0,0,1,22.35,3.712Z" transform="translate(0 0)"/></g><g transform="translate(0 21.12)"><path class="b" d="M30.3,51.575l-1.015,1.678a1.961,1.961,0,0,0,2.976-1.666Zm.2-33.69,1.961.011a1.961,1.961,0,0,0-.986-1.713ZM.961.961l.975-1.7A1.961,1.961,0,0,0-1,.964Zm.053,32.895-1.961,0A1.961,1.961,0,0,0,0,35.534ZM32.26,51.586l.2-33.69-3.922-.023-.2,33.69Zm-.79-35.4L1.936-.74l-1.95,3.4L29.519,19.587ZM-1,.964l.053,32.895,3.922-.006L2.922.958ZM0,35.534,29.284,53.253l2.03-3.355L2.029,32.178Z" transform="translate(1 1)"/></g><g transform="translate(29.532 57.26)"><path class="b" d="M0,13.738a1.961,1.961,0,0,0,1.922,3.419ZM26.725.961l.963,1.708A1.961,1.961,0,0,0,25.764-.748Zm-9.711,3.22A1.961,1.961,0,1,0,18.94,7.6ZM1.922,17.157,27.686,2.67,25.764-.748,0,13.738Zm23.84-17.9L17.015,4.182,18.94,7.6,27.688,2.67Z" transform="translate(1 1)"/></g><g transform="translate(29.493 72.595)"><path class="b" d="M30.3,51.575l-1.016,1.678a1.961,1.961,0,0,0,2.977-1.665Zm.213-33.69,1.961.012a1.961,1.961,0,0,0-.986-1.714ZM.961.961l.975-1.7A1.961,1.961,0,0,0-1,.965Zm.071,32.895-1.961,0a1.961,1.961,0,0,0,.945,1.673ZM32.26,51.588l.213-33.69-3.922-.025-.213,33.69Zm-.773-35.4L1.936-.741l-1.949,3.4L29.538,19.587ZM-1,.965-.929,33.86l3.922-.008L2.922.957ZM.016,35.533,29.283,53.253,31.315,49.9,2.048,32.178Z" transform="translate(1 1)"/></g><g transform="translate(65.065 73.007)"><path class="c" d="M30.423.961l1.96.047A1.961,1.961,0,0,0,29.457-.746ZM.961,17.638l-.966-1.707A1.961,1.961,0,0,0-1,17.639ZM.979,51.5H-.982a1.961,1.961,0,0,0,2.939,1.7ZM29.605,35.022l.979,1.7a1.96,1.96,0,0,0,.982-1.652ZM29.457-.746-.005,15.931l1.932,3.413L31.389,2.668ZM-1,17.639l.018,33.866,3.922,0L2.922,17.637ZM1.957,53.2,30.584,36.721l-1.957-3.4L0,49.805ZM31.566,35.069l.818-34.061L28.463.914l-.818,34.061Z" transform="translate(1 1)"/></g><g transform="translate(69.025 57.26)"><path class="c" d="M25.467,17.6a1.961,1.961,0,0,0,1.983-3.384ZM.961.961,1.952-.731A1.961,1.961,0,0,0-.031,2.653ZM8.629,7.724a1.961,1.961,0,0,0,1.982-3.384ZM27.45,14.215,1.953-.731-.031,2.653,25.467,17.6ZM-.03,2.653l8.659,5.07,1.982-3.384L1.952-.731Z" transform="translate(1 1)"/></g><g transform="translate(95.166 21.884)"><path class="c" d="M30.423.961l1.96.047A1.961,1.961,0,0,0,29.458-.746ZM.961,17.62,0,15.913a1.961,1.961,0,0,0-1,1.708ZM.979,51.5H-.982a1.961,1.961,0,0,0,2.94,1.7ZM29.605,35l.979,1.7a1.961,1.961,0,0,0,.981-1.652ZM29.458-.746,0,15.913l1.93,3.414L31.388,2.668ZM-1,17.621l.018,33.884,3.922,0L2.922,17.619ZM1.958,53.2,30.585,36.7l-1.959-3.4L0,49.805ZM31.566,35.051l.818-34.043L28.463.914l-.818,34.043Z" transform="translate(1 1)"/></g><g transform="translate(63.182 0.333)"><path class="d" d="M.961,17.285.026,15.561a1.961,1.961,0,0,0-.052,3.418ZM30.21,34.315l-.987,1.695a1.961,1.961,0,0,0,1.964.006Zm29.516-16.96.977,1.7a1.961,1.961,0,0,0,0-3.4ZM31.046.961l.973-1.7a1.961,1.961,0,0,0-1.908-.021ZM-.026,18.979,29.223,36.01,31.2,32.62,1.948,15.59ZM31.187,36.015,60.7,19.056l-1.954-3.4L29.233,32.615ZM60.7,15.653,32.019-.741l-1.946,3.4,28.68,16.394ZM30.111-.763.026,15.561,1.9,19.008,31.981,2.685Z" transform="translate(1 1)"/></g><g transform="translate(62.202 17.021)"><path class="d" d="M3.189.979A1.961,1.961,0,0,0-.733.943ZM.961,30.375-1,30.358a1.961,1.961,0,0,0,3.922.035Zm2.05-9.964a1.961,1.961,0,0,0-3.922-.035ZM-.733.943-1,30.358l3.922.036L3.189.979Zm3.655,29.45.089-9.981-3.922-.035L-1,30.358Z" transform="translate(1 1)"/></g><g transform="translate(3.549)"><path class="d" d="M.961,17.285.026,15.561A1.961,1.961,0,0,0-.025,18.98Zm29.267,17.03-.986,1.695a1.961,1.961,0,0,0,1.963.005Zm29.516-16.96.977,1.7a1.961,1.961,0,0,0,0-3.4ZM31.046.961l.973-1.7a1.961,1.961,0,0,0-1.908-.021ZM-.025,18.98,29.241,36.01l1.973-3.39L1.947,15.59ZM31.2,36.015,60.72,19.056l-1.954-3.4L29.251,32.615ZM60.716,15.653,32.018-.742,30.073,2.664l28.7,16.394ZM30.111-.763.026,15.561,1.9,19.008,31.981,2.685Z" transform="translate(1 1)"/></g></g></svg>